<svg id="OBJECTS" xmlns="http://www.w3.org/2000/svg" viewBox="0 0 500 425.38"><defs><style>.cls-1{fill:#ffa099;}.cls-2{fill:#ff8680;}.cls-3{fill:#b55f5d;}.cls-4,.cls-7{fill:#0b0c1e;}.cls-22,.cls-5{fill:#fff;}.cls-21,.cls-23,.cls-25,.cls-26,.cls-6{fill:none;}.cls-6{stroke:#fff;}.cls-21,.cls-26,.cls-6{stroke-linecap:round;stroke-linejoin:round;}.cls-7{opacity:0.1;}.cls-8{fill:#00d8c8;}.cls-9{fill:#00bfb5;}.cls-10{fill:#007e89;opacity:0.5;}.cls-11{fill:#964e4e;}.cls-12{fill:#773e3e;}.cls-13{fill:#d3719d;}.cls-14{fill:#ff83b0;}.cls-15{fill:#ffa6c6;}.cls-16{fill:#171a43;}.cls-17{fill:#ce524e;}.cls-18{fill:#e5e5e5;}.cls-19{fill:#d6d6d6;}.cls-20{fill:#ff685b;}.cls-21,.cls-26{stroke:#171a43;}.cls-21{stroke-width:3px;}.cls-22{opacity:0.3;}.cls-23,.cls-25{stroke:#bcbcbc;stroke-miterlimit:10;}.cls-23{stroke-width:1.22px;}.cls-24{fill:#bcbcbc;}.cls-25{stroke-width:1.25px;}.cls-26{stroke-width:3.67px;}</style></defs><path class="cls-1" d="M387.29,212.84s7.38,36,0,41.77-35.67,13.49-35.67,13.49l62.74,35.34,51.05-37.27s-29.25-8.32-29.87-12.82-.61-32.77-.61-32.77Z" transform="translate(0 -74.62)"/><path class="cls-2" d="M390.09,248.21c14.1-1.12,32.39-.79,44.61-7.15.08-9.24.23-20.48.23-20.48l-47.64-7.74S392.06,236.09,390.09,248.21Z" transform="translate(0 -74.62)"/><path class="cls-2" d="M383.91,181.45c-4.31-10.1-11.48-6.43-12.15-6.07s-8.28,2.71-5.74,13.54,9.15,16,14.52,13.3C386.15,200.3,388.25,191.61,383.91,181.45Z" transform="translate(0 -74.62)"/><path class="cls-1" d="M460.86,154.06c-7.19-45.51-42.13-33.1-45.39-32.54-3.31-.13-38.28-.4-39.43,45.65-1.16,46.32,28.71,73.07,54.54,69.71C456.58,234.57,468.09,199.83,460.86,154.06Z" transform="translate(0 -74.62)"/><path class="cls-3" d="M432.34,158.66c1.18,2.71,2.24,5.46,3.27,8.22s2,5.53,2.92,8.32c.47,1.39.91,2.79,1.36,4.19s.89,2.8,1.32,4.21.87,2.8,1.26,4.22.83,2.82,1.2,4.24l.24.93-.88.12q-3.52.46-7.07.86c-2.36.25-4.72.5-7.1.65,2.3-.62,4.62-1.14,6.93-1.67s4.64-1,7-1.45l-.64,1.05c-.51-1.38-1-2.78-1.44-4.17s-.92-2.79-1.38-4.19-.9-2.79-1.32-4.2-.87-2.81-1.28-4.22c-.82-2.82-1.61-5.65-2.35-8.5S432.92,161.56,432.34,158.66Z" transform="translate(0 -74.62)"/><path class="cls-4" d="M394.54,162.59a6.21,6.21,0,0,1,.4-1.11,13,13,0,0,1,1.6-2.67,14,14,0,0,1,3.28-3.06,12.86,12.86,0,0,1,2.33-1.23,11.84,11.84,0,0,1,2.69-.72,10.73,10.73,0,0,1,2.83,0A7.76,7.76,0,0,1,409,154a7.26,7.26,0,0,1,1.27.41,10.05,10.05,0,0,1,2.19,1.15,10.72,10.72,0,0,1,1.66,1.37,10.19,10.19,0,0,1,1.15,1.37,7.41,7.41,0,0,1,.74,1.13,10.71,10.71,0,0,1,.53,1.07s-.42-.16-1.07-.48c-.32-.17-.74-.32-1.17-.53s-1-.39-1.48-.62c-.26-.12-.55-.2-.83-.3a8.24,8.24,0,0,0-.88-.29,12.47,12.47,0,0,0-1.85-.44,11.16,11.16,0,0,0-1.92-.19,9.93,9.93,0,0,0-2,.12,22.42,22.42,0,0,0-7.34,2.77c-1,.56-1.9,1.08-2.53,1.44Z" transform="translate(0 -74.62)"/><path class="cls-4" d="M434.88,160.75a6.83,6.83,0,0,1,.41-1.12,13,13,0,0,1,1.6-2.67,14,14,0,0,1,3.28-3.06,12.74,12.74,0,0,1,2.32-1.22,12.08,12.08,0,0,1,2.7-.73,10.73,10.73,0,0,1,2.83,0,7.76,7.76,0,0,1,1.36.25,7.54,7.54,0,0,1,1.27.41,9.88,9.88,0,0,1,2.19,1.16,9.7,9.7,0,0,1,1.66,1.37,10.28,10.28,0,0,1,1.15,1.36,7.45,7.45,0,0,1,.74,1.14,10.1,10.1,0,0,1,.53,1.06s-.42-.16-1.07-.48c-.32-.17-.74-.32-1.18-.53s-.95-.39-1.48-.62c-.26-.12-.54-.2-.83-.3a8.07,8.07,0,0,0-.87-.29,13.86,13.86,0,0,0-1.85-.44,12.37,12.37,0,0,0-1.92-.19,11.73,11.73,0,0,0-2,.12,22.33,22.33,0,0,0-7.34,2.77c-1,.56-1.9,1.08-2.53,1.44Z" transform="translate(0 -74.62)"/><ellipse class="cls-4" cx="405.67" cy="171.06" rx="5.75" ry="2.5" transform="translate(229.23 499.8) rotate(-89.24)"/><path class="cls-4" d="M440.21,168.77c0,3.17,1,5.76,2.42,5.78s2.53-2.54,2.58-5.72-1-5.76-2.43-5.78S440.25,165.59,440.21,168.77Z" transform="translate(0 -74.62)"/><path class="cls-5" d="M390.11,189.31s.25,19.5.25,28c0,0,14,24,42,20.75s32.23-44.85,31.23-47.6-14.1-11.15-26.35-11.9S390.11,189.31,390.11,189.31Z" transform="translate(0 -74.62)"/><path class="cls-6" d="M375.61,174.56s6.75,15.75,27.5,17.75l-7.25,20.5a34.23,34.23,0,0,1-14.5-10.75" transform="translate(0 -74.62)"/><path class="cls-7" d="M415.32,220.22c-8.18-9.22-13.37-21.51-15.9-33.59a50.94,50.94,0,0,0-9.31,2.68s.25,19.5.25,28c0,0,14,24,42,20.75a29.21,29.21,0,0,0,10.58-3.3A42.15,42.15,0,0,1,415.32,220.22Z" transform="translate(0 -74.62)"/><path class="cls-3" d="M373.86,170.56l3,20,3.5-1.5-.5-21s11.14-5.85,10.64-24.35-24.14,2.85-24.14,2.85l3,30.5s4.5-4.5,7.5,2" transform="translate(0 -74.62)"/><path class="cls-8" d="M367.36,156.56s29.5-23,92-11c0,0-2.51-30.4-11-40.5-10.5-12.5-71-12.5-80.5,13C361.62,134.8,367.36,156.56,367.36,156.56Z" transform="translate(0 -74.62)"/><path class="cls-9" d="M390.53,100.6c-10.72,3.32-19.51,9-22.67,17.46-6.24,16.74-.5,38.5-.5,38.5s5-3.9,15.24-7.65C381.9,133.31,385.81,115.53,390.53,100.6Z" transform="translate(0 -74.62)"/><path class="cls-9" d="M453.64,257.06l-34,38-37-39s-51,16-52,29,24,108,24,108L332.64,500H500V277.06Z" transform="translate(0 -74.62)"/><path class="cls-10" d="M414.69,390.68c-31.87-33.39-59-71.95-77-114.62-4.12,3-6.87,6.08-7.09,9-1,13,24,108,24,108L332.64,500H500V459.52C468,440.73,440.15,417.36,414.69,390.68Z" transform="translate(0 -74.62)"/><path class="cls-8" d="M419.64,308.06c-17.76-14.32-32.1-32.9-49.48-47.67,7.19-2.68,12.48-4.33,12.48-4.33l37,39,34-38,8.48,3.31C448.93,273.14,420.26,307.4,419.64,308.06Z" transform="translate(0 -74.62)"/><path class="cls-4" d="M136.73,197.91s12.29-19.75,22.33-15.1-1.89,12.37-1.89,12.37,20.65-11,27.69,6.88-15.58,19.64-15.58,19.64,18.75,2.24,12,13.05-17.26-6.6-17.26-6.6,9.66,13.56-8.24,20.6-13.89-29.63-13.89-29.63,1.52,22.31-6.66,23.4,1.13-23,1.13-23-4.82,20-14.81,14.88S123,199.38,136.73,197.91Z" transform="translate(0 -74.62)"/><path class="cls-3" d="M123.66,214.11s-7,34,0,39.42,34.07,12.74,34.07,12.74L97.81,299.62,49,264.45s32.31-7.89,32.9-12.13.59-30.93.59-30.93Z" transform="translate(0 -74.62)"/><path class="cls-11" d="M121,247.5c-13.46-1.06-26.56-3.3-38.23-9.3-.08-8.72-.22-16.81-.22-16.81l41.13-7.28S119.1,236.05,121,247.5Z" transform="translate(0 -74.62)"/><path class="cls-11" d="M132.87,180.63c4.62-10.89,12.27-6.95,13-6.56.77.23,8.84,2.9,6.11,14.59s-9.79,17.21-15.51,14.34C130.46,201,128.23,191.58,132.87,180.63Z" transform="translate(0 -74.62)"/><path class="cls-3" d="M56.46,161.6c7.18-45.5,41.81-40.64,45.07-40.08,3.31-.13,38.28-.4,39.43,45.65,1.16,46.32-28.71,73.07-54.54,69.71C60.42,234.57,49.23,207.38,56.46,161.6Z" transform="translate(0 -74.62)"/><path class="cls-4" d="M116.86,132.56s-5,18.5,17,28.5c0,0-2.5,34,2,34s3-27.5,16-14.5c0,0,28.51-29.44,15-54-16.5-30-49-18-49-18s-9-26.67-32.5-21c-14.5,3.5-5,19.5-3.5,21l1.5,1.5s-23-28.5-40-7c-9.22,11.66,12,25,12,25s-16-2-15.5,7,16.5,2,16.5,2-14,9.5-3,15.5,37.5-.5,50-17.5-22,15-12.5,20.5S114.86,145.56,116.86,132.56Z" transform="translate(0 -74.62)"/><path class="cls-12" d="M86.78,169.33c-.51,2.64-1.13,5.25-1.78,7.84s-1.37,5.16-2.11,7.73c-.36,1.29-.76,2.56-1.14,3.84s-.79,2.55-1.2,3.82-.8,2.55-1.24,3.81-.84,2.53-1.3,3.79l-.6-1c1.26.29,2.52.62,3.78,1s2.5.71,3.73,1.15c-1.31,0-2.61-.1-3.9-.19s-2.59-.24-3.88-.4l-.83-.1.23-.89c.33-1.29.72-2.57,1.07-3.86s.76-2.56,1.14-3.84.77-2.56,1.18-3.82.8-2.55,1.23-3.82c.85-2.53,1.72-5.05,2.65-7.56S85.7,171.8,86.78,169.33Z" transform="translate(0 -74.62)"/><path class="cls-5" d="M110,210.09l-39.44-3.44S85.29,225.84,110,210.09Z" transform="translate(0 -74.62)"/><path class="cls-4" d="M124.89,168.49l-1-.6c-.62-.38-1.49-.91-2.51-1.48a22.24,22.24,0,0,0-7.3-2.87,11.73,11.73,0,0,0-2-.15,11.26,11.26,0,0,0-1.93.17,14,14,0,0,0-1.86.42,8.94,8.94,0,0,0-.88.27c-.28.1-.57.18-.83.29-.53.22-1,.39-1.49.6s-.86.35-1.18.52c-.65.31-1.07.46-1.07.46a9.33,9.33,0,0,1,.54-1.06,8.39,8.39,0,0,1,.75-1.12,10.49,10.49,0,0,1,1.17-1.35,10.77,10.77,0,0,1,1.68-1.35,10.33,10.33,0,0,1,2.2-1.13,8.65,8.65,0,0,1,1.28-.39,7.69,7.69,0,0,1,1.37-.23,10.66,10.66,0,0,1,2.82.07,12.6,12.6,0,0,1,2.69.76,12.35,12.35,0,0,1,2.3,1.26,13.61,13.61,0,0,1,3.24,3.1,12.67,12.67,0,0,1,1.57,2.69A6.46,6.46,0,0,1,124.89,168.49Z" transform="translate(0 -74.62)"/><path class="cls-4" d="M83.57,166.6l-1-.6c-.62-.38-1.49-.9-2.51-1.48a22.46,22.46,0,0,0-7.3-2.87,10.78,10.78,0,0,0-2-.14,11.22,11.22,0,0,0-1.92.16,14,14,0,0,0-1.86.42,6.92,6.92,0,0,0-.88.28c-.28.1-.57.17-.83.29-.53.22-1,.39-1.49.6s-.86.35-1.18.51c-.65.31-1.07.46-1.07.46a9.88,9.88,0,0,1,.54-1,7.08,7.08,0,0,1,.75-1.13A12,12,0,0,1,64,160.7a11.35,11.35,0,0,1,1.68-1.34,9.89,9.89,0,0,1,2.2-1.13,7.61,7.61,0,0,1,1.28-.39,7.69,7.69,0,0,1,1.37-.24,11.1,11.1,0,0,1,2.82.07,12.6,12.6,0,0,1,2.69.76,13,13,0,0,1,2.3,1.26,13.81,13.81,0,0,1,3.24,3.1,12.92,12.92,0,0,1,1.57,2.69A6.46,6.46,0,0,1,83.57,166.6Z" transform="translate(0 -74.62)"/><path class="cls-4" d="M105.6,175s0,.45.09,1.22.17,1.86.39,3.12c.12.63.28,1.3.47,2,.1.34.24.67.36,1s.3.66.48,1a4.9,4.9,0,0,0,.62.87l.36.38.41.31a3.34,3.34,0,0,0,.9.47c.32.12.69.13,1,.22a5,5,0,0,0,.56,0,2.45,2.45,0,0,0,.43-.06,2.34,2.34,0,0,0,.88-.36,4.75,4.75,0,0,0,1.44-1.51,16.28,16.28,0,0,0,1.65-3.91c.35-1.24.6-2.31.77-3.06l.25-1.2a10.94,10.94,0,0,1,.15,1.23,18,18,0,0,1,0,3.25,13.18,13.18,0,0,1-.36,2.18,10.32,10.32,0,0,1-.88,2.4,6,6,0,0,1-1.91,2.25,4.61,4.61,0,0,1-1.5.66,3.87,3.87,0,0,1-.87.13,6.24,6.24,0,0,1-.75,0,9.75,9.75,0,0,1-1.53-.37,5.32,5.32,0,0,1-1.38-.77c-.2-.16-.42-.32-.6-.49l-.47-.59a6.88,6.88,0,0,1-.74-1.24,11.3,11.3,0,0,1-.47-1.25c-.08-.42-.19-.83-.25-1.22a12.48,12.48,0,0,1-.15-2.22,14.36,14.36,0,0,1,.12-1.85c.07-.54.15-1,.23-1.4C105.46,175.42,105.6,175,105.6,175Z" transform="translate(0 -74.62)"/><path class="cls-4" d="M65.44,171.34s0,.45.09,1.22.17,1.85.39,3.12c.12.63.28,1.3.47,2,.1.35.24.68.36,1s.3.66.48,1a4.82,4.82,0,0,0,.62.86l.36.39.4.3a3.3,3.3,0,0,0,.91.48c.32.12.69.13,1,.22a5,5,0,0,0,.56,0,2.45,2.45,0,0,0,.43-.06,2.82,2.82,0,0,0,.88-.36A4.75,4.75,0,0,0,73.86,180a16.45,16.45,0,0,0,1.65-3.91c.35-1.24.6-2.31.77-3.07l.25-1.19a10.93,10.93,0,0,1,.15,1.22,18,18,0,0,1,0,3.25,13.29,13.29,0,0,1-.36,2.19,10.09,10.09,0,0,1-.88,2.39,6,6,0,0,1-1.91,2.25,4.51,4.51,0,0,1-1.5.67,5.68,5.68,0,0,1-.87.13,4.9,4.9,0,0,1-.76,0,9.88,9.88,0,0,1-1.52-.36,5.63,5.63,0,0,1-1.38-.77c-.2-.17-.42-.32-.6-.5l-.47-.59a7.17,7.17,0,0,1-.74-1.23,10.73,10.73,0,0,1-.47-1.26c-.08-.42-.19-.82-.25-1.22a13.56,13.56,0,0,1-.16-2.22,16.23,16.23,0,0,1,.13-1.84,14.09,14.09,0,0,1,.23-1.4C65.3,171.76,65.44,171.34,65.44,171.34Z" transform="translate(0 -74.62)"/><path class="cls-12" d="M140.86,199.56a6.7,6.7,0,0,0,1.76-1.06,2.63,2.63,0,0,0,.33-.34,1.88,1.88,0,0,0,.24-.36,1.81,1.81,0,0,0,.09-.37c0-.12,0-.23-.06-.35s-.06-.23-.16-.34l-.25-.34a5.89,5.89,0,0,0-.7-.61c-.28-.18-.5-.4-.8-.56l-.86-.5-.35-.21,0-.47a29.47,29.47,0,0,1,0-3.12,27.45,27.45,0,0,1,.33-3.13,16.23,16.23,0,0,1,.79-3.12,9.23,9.23,0,0,1,.71-1.54,4.64,4.64,0,0,1,1.22-1.43,3.06,3.06,0,0,1,2-.65,2.16,2.16,0,0,1,.51.06l.25,0,.12,0,.06,0,.1,0h0l.7.31a7.7,7.7,0,0,1,.8.52,4.57,4.57,0,0,1,.66.66,4.74,4.74,0,0,1,.84,1.56,7,7,0,0,1,.26,1.67,8.5,8.5,0,0,1-.13,1.6,10.8,10.8,0,0,1-1,3,16.39,16.39,0,0,0,.21-3,9.61,9.61,0,0,0-.16-1.44,5.43,5.43,0,0,0-.42-1.31,3.9,3.9,0,0,0-.73-1,3.22,3.22,0,0,0-1-.63l-.72-.26h0s.14,0,.07,0h-.11l-.13,0a.66.66,0,0,0-.24,0,1.24,1.24,0,0,0-.81.35,5,5,0,0,0-1.24,2.16,21.9,21.9,0,0,0-.72,2.79c-.18,1-.31,2-.44,2.94s-.19,2-.27,3l-.38-.67.89.67a9.8,9.8,0,0,1,.84.75,8.37,8.37,0,0,1,.74.91l.29.56a2.5,2.5,0,0,1,.17.64,2,2,0,0,1,0,.69,2.45,2.45,0,0,1-.29.61,3,3,0,0,1-.44.44,2.07,2.07,0,0,1-.48.31A5.82,5.82,0,0,1,140.86,199.56Z" transform="translate(0 -74.62)"/><polygon class="cls-3" points="13.69 265.77 0 342.44 0 425.38 19.69 425.38 47.03 277.77 13.69 265.77"/><path class="cls-11" d="M37.6,403.29,47,352.39l-33.34-12-5,27.73C17.9,380.22,27.15,392.47,37.6,403.29Z" transform="translate(0 -74.62)"/><path class="cls-13" d="M40.36,266.06s-12,3.66-21.33,23.66S1.69,346.39,1.69,346.39s38,28,48,28S40.36,266.06,40.36,266.06Z" transform="translate(0 -74.62)"/><path class="cls-14" d="M63.36,257.06l34,38,37-39s51,16,52,29-24,108-24,108l22,106.94h-169s19-103.94,26-148.94c0,0-15-15-12-35s11-50,11-50Z" transform="translate(0 -74.62)"/><path class="cls-13" d="M186.36,285.06c-.51-6.6-13.87-14-26.92-19.62-7.53,20.49-15.81,40.85-26.94,59.65-13,22-30.15,40.44-48.72,57.85C66.53,399.09,48.1,415,28.27,428.11,21.62,465.78,15.36,500,15.36,500h169l-22-106.94S187.36,298.06,186.36,285.06Z" transform="translate(0 -74.62)"/><path class="cls-15" d="M97.36,308.06c17.76-14.32,32.1-32.9,49.48-47.67-7.19-2.68-12.48-4.33-12.48-4.33l-37,39-34-38-8.48,3.31C68.07,273.14,96.74,307.4,97.36,308.06Z" transform="translate(0 -74.62)"/><path class="cls-4" d="M251.78,221.7s-12.65,3.09-22-3.1l.07,2.34S211.62,214.48,210,181s11.55-33,11.55-33S257.83,194.38,251.78,221.7Z" transform="translate(0 -74.62)"/><path class="cls-4" d="M328.32,171.1s10.11,27.92-16.41,40.29l2.18,2.32s-7.88,8.44-34,7.63c-26.69-.82-14.19-34.69-14.19-34.69l13.26-34L328.32,168" transform="translate(0 -74.62)"/><path class="cls-16" d="M246.53,96.74s-28.33-23-46.55,9.08,7.69,81.77-10.77,103.86c0,0,20.27,19.62,26.14-11.44s7.17-81.35,7.17-81.35Z" transform="translate(0 -74.62)"/><path class="cls-1" d="M239.34,197.8s7.69,35.9,0,41.67-37.18,13.46-37.18,13.46l65.39,35.26L320.75,251s-35.25-8.34-35.9-12.83-.64-32.69-.64-32.69Z" transform="translate(0 -74.62)"/><path class="cls-2" d="M242.26,233.09c14.69-1.12,29-3.49,41.72-9.83.08-9.22.23-17.77.23-17.77l-44.87-7.69S244.31,221,242.26,233.09Z" transform="translate(0 -74.62)"/><path class="cls-2" d="M224.32,158.49c-3.82-11-12.2-8.22-13-7.94-.82.12-9.52,1.62-7.74,13.11s8.66,17.67,14.92,15.68C225,178.16,228.17,169.53,224.32,158.49Z" transform="translate(0 -74.62)"/><path class="cls-2" d="M300.38,158.82c3.31-11.14,11.81-8.78,12.6-8.53.83.07,9.59,1.16,8.35,12.72s-7.82,18.06-14.17,16.37C300.65,178.5,297.06,170,300.38,158.82Z" transform="translate(0 -74.62)"/><path class="cls-1" d="M307.33,141.25c-7.9-48-42.35-44.8-45.81-44.35-3.49-.28-40.41-2.13-43.69,46.45-3.29,48.87,23.6,78.1,51,75.71C296.43,217.77,315.36,190.06,307.33,141.25Z" transform="translate(0 -74.62)"/><path class="cls-16" d="M239.64,108.75s17.73-11,29.24,3.44c39.45,70.88,45.22,33,40.95,108.35,0,0,24.65-6.88,23.1-44.39,0,0,4.61-64-24.67-88.08C277.61,62.88,232.52,74.93,239.64,108.75Z" transform="translate(0 -74.62)"/><path class="cls-16" d="M307.28,168.47l-1-.68c-.63-.44-1.56-1.09-2.69-2s-2.49-2-4-3.43c-.76-.68-1.51-1.45-2.33-2.25s-1.61-1.69-2.43-2.63a75.53,75.53,0,0,1-5.08-6.28c-1.71-2.29-3.4-4.8-5-7.46s-3.21-5.45-4.75-8.32-3-5.8-4.49-8.73-2.93-5.82-4.43-8.61Q270,116,268.79,114c-.39-.67-.79-1.31-1.2-1.95l-1.19-1.81a19.66,19.66,0,0,0-2.76-3.13,16.51,16.51,0,0,0-3.22-2.19,16.33,16.33,0,0,0-7.06-1.71,25.75,25.75,0,0,0-6.42.66,36.15,36.15,0,0,0-4.89,1.45c-1.33.49-2.37.94-3.06,1.27s-1.06.52-1.06.52a26.45,26.45,0,0,1,3.79-2.52,33.12,33.12,0,0,1,4.78-2.22,26.32,26.32,0,0,1,6.8-1.54,17.53,17.53,0,0,1,12.54,3.59,23.55,23.55,0,0,1,3.49,3.41l.8,1c.25.31.5.63.73,1,.48.65,1,1.31,1.41,2,.93,1.34,1.79,2.73,2.64,4.14,1.68,2.83,3.25,5.75,4.76,8.68l4.43,8.7c1.45,2.86,2.9,5.65,4.36,8.31s2.92,5.2,4.35,7.58,2.9,4.56,4.28,6.56,2.73,3.78,3.94,5.35c.61.78,1.19,1.51,1.75,2.17s1,1.29,1.51,1.82c.93,1.08,1.68,1.94,2.2,2.51Z" transform="translate(0 -74.62)"/><path class="cls-16" d="M241.83,100.19c-6-5.5-27-8.78-29.3,13.07-3.19,30,13.18,76.91-8.9,105.36,3.14,1.07,6.07,2.6,9.19,4,.6.28,1.2.52,1.81.75a23.64,23.64,0,0,0,3.69-4.34,26.48,26.48,0,0,1-2.3,4.84c.75.24,1.5.46,2.26.64a21.1,21.1,0,0,0,3.36-.24c2.13-2.48,3.94-6.16,4.78-11.62,2.86-18.62-9-101.85,13.24-103.92C239.66,108.75,244.56,102.69,241.83,100.19Z" transform="translate(0 -74.62)"/><path class="cls-3" d="M268.11,156.62c1.09,1.62,2.08,3.29,3,5s1.84,3.4,2.7,5.12c.44.86.84,1.74,1.26,2.61s.82,1.74,1.21,2.62.79,1.76,1.16,2.66.75,1.77,1.1,2.67l.27.73-.6.32c-1.3.69-2.62,1.35-4,2s-2.68,1.27-4.07,1.81c1.15-.95,2.35-1.82,3.54-2.69s2.42-1.7,3.65-2.52l-.32,1.05c-.47-.85-.89-1.72-1.33-2.58s-.85-1.73-1.27-2.6-.83-1.74-1.22-2.62-.79-1.76-1.16-2.65c-.76-1.77-1.49-3.56-2.16-5.37S268.63,158.5,268.11,156.62Z" transform="translate(0 -74.62)"/><path class="cls-3" d="M254.35,190.53s.44.17,1.19.5c.36.17.83.35,1.34.55s1.1.42,1.75.63,1.35.42,2.09.63,1.55.33,2.36.51l1.25.17c.43.07.86.06,1.29.11a9.51,9.51,0,0,0,1.31.05,11.63,11.63,0,0,0,1.32,0l1.31-.09,1.3-.2a24.4,24.4,0,0,0,2.49-.56l1.17-.36c.38-.12.74-.28,1.1-.41.73-.26,1.38-.6,2-.87s1.15-.61,1.66-.85.91-.51,1.26-.72c.69-.42,1.1-.65,1.1-.65s-.3.35-.87.94a10,10,0,0,1-1.08,1,14.76,14.76,0,0,1-1.51,1.2,15.68,15.68,0,0,1-2,1.21c-.36.19-.73.4-1.12.58s-.81.33-1.23.49a11,11,0,0,1-1.3.43,9.17,9.17,0,0,1-1.37.35l-1.41.25-1.45.13a13.83,13.83,0,0,1-1.44,0,9.72,9.72,0,0,1-1.43-.09,16.9,16.9,0,0,1-2.73-.48,18.66,18.66,0,0,1-2.46-.8l-1.09-.46c-.35-.16-.67-.34-1-.51a14.56,14.56,0,0,1-1.66-1,11.24,11.24,0,0,1-1.2-.86C254.71,190.84,254.35,190.53,254.35,190.53Z" transform="translate(0 -74.62)"/><path class="cls-4" d="M226.78,146.41a7.73,7.73,0,0,1,.46-1.17,13.49,13.49,0,0,1,1.77-2.77,14.71,14.71,0,0,1,3.57-3.13,13.75,13.75,0,0,1,2.49-1.23,12.84,12.84,0,0,1,2.86-.68,11.49,11.49,0,0,1,3,0,11.3,11.3,0,0,1,2.77.78,11.1,11.1,0,0,1,2.28,1.29,12.22,12.22,0,0,1,1.71,1.5,11.86,11.86,0,0,1,1.18,1.47,10,10,0,0,1,.74,1.23,12.32,12.32,0,0,1,.52,1.14s-.44-.18-1.11-.54c-.33-.18-.77-.36-1.23-.59s-1-.45-1.54-.7c-.27-.14-.57-.23-.87-.35a8.13,8.13,0,0,0-.91-.33,15.39,15.39,0,0,0-1.94-.53,13.92,13.92,0,0,0-2-.26,12.09,12.09,0,0,0-2.08.07,23.57,23.57,0,0,0-7.84,2.71c-1.09.56-2,1.08-2.71,1.44Z" transform="translate(0 -74.62)"/><path class="cls-4" d="M273.19,145.32a6.56,6.56,0,0,1,.46-1.17,13.49,13.49,0,0,1,1.77-2.77,14.65,14.65,0,0,1,3.56-3.13,14.43,14.43,0,0,1,2.49-1.23,13.06,13.06,0,0,1,2.87-.68,11.5,11.5,0,0,1,3,0,8.46,8.46,0,0,1,1.43.31,8.15,8.15,0,0,1,1.34.47,11.58,11.58,0,0,1,2.28,1.29,12.22,12.22,0,0,1,1.71,1.5,11.86,11.86,0,0,1,1.18,1.47,11.42,11.42,0,0,1,.74,1.23,12.32,12.32,0,0,1,.52,1.14s-.44-.18-1.12-.54c-.33-.18-.76-.36-1.22-.59s-1-.45-1.54-.7c-.27-.14-.58-.23-.87-.35a9.11,9.11,0,0,0-.92-.33,14.94,14.94,0,0,0-1.94-.53,13.61,13.61,0,0,0-2-.26,12.09,12.09,0,0,0-2.08.07,23.57,23.57,0,0,0-7.84,2.71c-1.09.56-2,1.08-2.72,1.44Z" transform="translate(0 -74.62)"/><path class="cls-4" d="M237.44,164.93s-.13-.46-.27-1.27a16.83,16.83,0,0,1-.24-3.45,14.55,14.55,0,0,1,.26-2.34,9.58,9.58,0,0,1,.87-2.58,6.46,6.46,0,0,1,2-2.38,6.13,6.13,0,0,1,3.13-1,6.82,6.82,0,0,1,.8,0,6.11,6.11,0,0,1,.91.18,4.94,4.94,0,0,1,1.56.77,6.39,6.39,0,0,1,1.91,2.46,10.46,10.46,0,0,1,.82,2.57,14.41,14.41,0,0,1,.29,2.32,18.53,18.53,0,0,1-.11,3.44,12.72,12.72,0,0,1-.21,1.28s-.07-.46-.21-1.27-.36-1.94-.68-3.27a16.85,16.85,0,0,0-1.56-4.2,5.13,5.13,0,0,0-1.45-1.66,2.73,2.73,0,0,0-.92-.42,2,2,0,0,0-.45-.08c-.13,0-.52,0-.59,0a4.35,4.35,0,0,0-3.62,2.23,14,14,0,0,0-1.55,4.15c-.29,1.33-.45,2.48-.55,3.29S237.44,164.93,237.44,164.93Z" transform="translate(0 -74.62)"/><path class="cls-4" d="M280,162.86a10.92,10.92,0,0,1-.28-1.27,17.66,17.66,0,0,1-.23-3.44,13.5,13.5,0,0,1,.26-2.34,9.36,9.36,0,0,1,.87-2.58,6.49,6.49,0,0,1,2-2.39,6.19,6.19,0,0,1,3.12-1.05,6.87,6.87,0,0,1,.81,0,4.32,4.32,0,0,1,.91.18,4.77,4.77,0,0,1,1.55.76,6.32,6.32,0,0,1,1.92,2.46,11,11,0,0,1,.82,2.58,15.63,15.63,0,0,1,.29,2.32,19.54,19.54,0,0,1-.11,3.44,12.72,12.72,0,0,1-.21,1.28s-.07-.47-.21-1.27-.36-1.95-.68-3.27a17.32,17.32,0,0,0-1.56-4.21,5.25,5.25,0,0,0-1.46-1.66,3,3,0,0,0-.92-.42,4.3,4.3,0,0,0-.45-.08c-.12,0-.51,0-.59,0a4.34,4.34,0,0,0-3.61,2.22,13.82,13.82,0,0,0-1.55,4.16c-.29,1.33-.45,2.47-.56,3.28S280,162.86,280,162.86Z" transform="translate(0 -74.62)"/><path class="cls-3" d="M206.36,158.06a8.42,8.42,0,0,1,1.76-2.46,4.1,4.1,0,0,1,1.38-.91,2.69,2.69,0,0,1,.92-.18,2.39,2.39,0,0,1,1,.2,2.9,2.9,0,0,1,.81.55,4.64,4.64,0,0,1,.58.68,6.86,6.86,0,0,1,.76,1.47,16.47,16.47,0,0,1,.78,3v.14l0,2.5c0,.83,0,1.66,0,2.5s0,1.66-.06,2.49-.06,1.67-.12,2.5l-.07.84-.71,0a5.77,5.77,0,0,0-.82,0,4.69,4.69,0,0,0-.78.15,1.5,1.5,0,0,0-.34.12.92.92,0,0,0-.26.14,2,2,0,0,0-.14.16c0,.07-.08.12,0,.23a.62.62,0,0,0,0,.32,2.79,2.79,0,0,0,.14.37,6.19,6.19,0,0,0,.48.74,7.49,7.49,0,0,0,.57.72l.62.71-.82-.48a7,7,0,0,1-.79-.55,5.87,5.87,0,0,1-.73-.69,3.91,3.91,0,0,1-.3-.45,1.69,1.69,0,0,1-.23-.56,1.47,1.47,0,0,1,0-.69,1.71,1.71,0,0,1,.32-.63,1.89,1.89,0,0,1,.47-.43,2.32,2.32,0,0,1,.5-.29,5.54,5.54,0,0,1,1-.36,8.18,8.18,0,0,1,1-.18l-.78.8c-.06-.83-.08-1.66-.12-2.5s-.06-1.66-.06-2.49,0-1.67,0-2.5l0-2.5v.13c-.08-.46-.12-.93-.2-1.38a10.77,10.77,0,0,0-.31-1.33,6.78,6.78,0,0,0-.44-1.2,4.58,4.58,0,0,0-.31-.49,1.86,1.86,0,0,0-.36-.33,1.05,1.05,0,0,0-.42-.18,1.35,1.35,0,0,0-.53,0,4,4,0,0,0-1.2.48A12.57,12.57,0,0,0,206.36,158.06Z" transform="translate(0 -74.62)"/><path class="cls-17" d="M359.6,284.89c-8.37-23.95-42.7-36.62-59.14-44.52l.27-.16c-.27.16-38.46,30-38.46,30l-32.35-28.79c.08.05.17.09.25.15-18.36,8-50.25,21.86-53.08,46-3.13,26.69-6.32,59.61-6.32,59.61l93,23.08h0l108.58-35.31A306.16,306.16,0,0,0,359.6,284.89Z" transform="translate(0 -74.62)"/><path class="cls-5" d="M215,245.24s-39.73,20.19-42.44,32.69-13.55,150-13.55,150L156.32,500H347.76l-3.61-236.49s-9-6.73-27.09-17.31L262.88,354.86S231.27,284.66,215,245.24Z" transform="translate(0 -74.62)"/><path class="cls-18" d="M249.77,440.91c-15.37,19.19-29.91,40.42-46.5,59.09H354L337.36,361.06C309.25,403.61,281.42,401.4,249.77,440.91Z" transform="translate(0 -74.62)"/><path class="cls-19" d="M322.47,251,321.1,264.5,319.67,278l-1.45,13.49L316.7,305l-.08.74h-.77l-23.48.24.93-1.69q5.2,8,10.35,16l.54.84-.72.71-19.79,19.31-19.83,19.27-1,.95-1-1-18.63-18.62L224.68,323l-.64-.65.41-.79q5.16-9.93,10.37-19.81l1.2,1.56-29,6.15-.95.2,0-1-.62-14.27-.55-14.27-.54-14.28-.49-14.27,1,14.25,1,14.25,1,14.25.89,14.26-1-.76,28.83-6.67,2.24-.52-1,2.08q-5,10-10.1,19.94l-.22-1.44,18.74,18.51,18.69,18.55h-1.95l19.89-19.2L301.75,320l-.18,1.55q-5.08-8-10.12-16.1l-1.06-1.7,2,0,23.48.24-.85.75,1.79-13.45,1.87-13.43,1.88-13.44Z" transform="translate(0 -74.62)"/><path class="cls-18" d="M156.32,500H191.1l8.5-105.72-8.66-25c-21.15-16.35-3.85-50-3.85-50l-14.51-41.35c-2.71,12.5-13.55,150-13.55,150Z" transform="translate(0 -74.62)"/><polygon class="cls-16" points="209.07 255.73 219.46 392.05 322.16 387.77 313.61 247.17 209.07 255.73"/><polygon class="cls-19" points="240.62 247.54 241.26 257.16 287.42 254.6 285.5 243.06 240.62 247.54"/><path class="cls-1" d="M239.4,399.09s-26.64-2.41-26.64,1a4.62,4.62,0,0,0,3.16,4.33s-7.67,2.4-3.16,6.73c0,0-3.61,3.84.45,5.77,0,0-4.51,5.77,5.42,6.73s26.19,1.92,26.19,1.92Z" transform="translate(0 -74.62)"/><path class="cls-1" d="M227.21,400.53s-18.51-23.08,6.77-1.92S227.21,400.53,227.21,400.53Z" transform="translate(0 -74.62)"/><polygon class="cls-20" points="248.43 322.55 233.98 321.91 236.99 355.24 252.64 356.52 248.43 322.55"/><path class="cls-5" d="M344.15,263.51s9,3.84,19,25S383,398.13,376.65,421.2s-132.74,12.5-132.74,12.5l-1.8-39.42s58.69-3.85,92.1-12.5Z" transform="translate(0 -74.62)"/><path class="cls-21" d="M199.69,253.06s-30,27.33-4,96.66" transform="translate(0 -74.62)"/><circle class="cls-19" cx="198.36" cy="350.39" r="9.33" transform="translate(-51.54 -39.93) rotate(-8.85)"/><path class="cls-22" d="M194,350.06a4.33,4.33,0,1,0,4.33-4.34A4.33,4.33,0,0,0,194,350.06Z" transform="translate(0 -74.62)"/><path class="cls-21" d="M323.86,271.06c-.67-26-28.5-30-28.5-30" transform="translate(0 -74.62)"/><path class="cls-23" d="M321.36,354.67S309.56,365,303.1,309.73" transform="translate(0 -74.62)"/><ellipse class="cls-24" cx="320.59" cy="353.78" rx="1.91" ry="3.37" transform="translate(-153.12 219.68) rotate(-40.66)"/><path class="cls-25" d="M328.73,354.42s13.12,9.26,15.28-46.36" transform="translate(0 -74.62)"/><path class="cls-24" d="M331.07,354.58c-1.15,1.51-2.8,2.24-3.69,1.62s-.68-2.34.47-3.85,2.79-2.24,3.68-1.62S332.21,353.07,331.07,354.58Z" transform="translate(0 -74.62)"/><path class="cls-26" d="M305.29,324.46s-13.05-50.58,12.24-51.4,28.56,15.5,25.3,44.88" transform="translate(0 -74.62)"/><polygon class="cls-20" points="221.34 166.13 243.61 214.85 262.27 195.62 233.98 159.72 221.34 166.13"/><polygon class="cls-20" points="262.27 195.62 279.13 216.13 311.64 168.06 299 161 262.27 195.62"/><path class="cls-16" d="M294.52,343.45a291.46,291.46,0,0,0,22.25,30.39l-3.16-52.06-19.67,1.62Q294.07,333.43,294.52,343.45Z" transform="translate(0 -74.62)"/></svg>